<?xml version="1.0" encoding="UTF-8"?>
<svg version="1.1" xmlns="http://www.w3.org/2000/svg" width="1024" height="1024">
<path d="M0 0 C30.87118705 0.03638757 61.7422608 0.09315972 92.61334963 0.17792095 C96.26778608 0.18793699 99.92222296 0.19778136 103.57666016 0.20751953 C104.30411457 0.2094609 105.03156898 0.21140228 105.78106746 0.21340248 C117.52046348 0.24432342 129.25984001 0.26137533 140.99926904 0.27319422 C153.06795321 0.28565738 165.136536 0.31327418 177.20515609 0.35461307 C183.97426613 0.37737386 190.74324574 0.39341161 197.51239777 0.39188385 C203.89822952 0.39113296 210.28374332 0.40925522 216.66949272 0.44116783 C218.99928522 0.44960898 221.32911363 0.45145668 223.65891457 0.44580269 C259.72221668 0.37001667 292.48824758 10.15471638 318.9375 35.5 C326.15745933 43.12030125 332.28638286 51.62013876 337 61 C337.66 61 338.32 61 339 61 C339.15855469 62.23169922 339.15855469 62.23169922 339.3203125 63.48828125 C339.96728239 66.83095901 340.91131352 69.77387858 342.06982422 72.95922852 C352.64235821 102.2180271 352.49865405 136.16082206 340.02539062 164.82226562 C329.67910177 186.79581243 311.44224812 200.7840598 290 211 C290.680625 211.25652344 291.36125 211.51304687 292.0625 211.77734375 C305.67680386 217.15426961 318.15030374 224.08472734 329 234 C329.77730469 234.70769531 330.55460937 235.41539062 331.35546875 236.14453125 C352.31252229 256.16374763 362.81611314 284.2997125 364 313 C364.05285156 314.175625 364.10570312 315.35125 364.16015625 316.5625 C364.93328777 349.9079984 354.11131631 383.44091327 331.2578125 408.125 C312.47522953 427.75261649 289.44027882 440.13337157 263.0625 446.25 C262.42062744 446.40122314 261.77875488 446.55244629 261.11743164 446.70825195 C244.87842967 450.18453293 228.447931 450.282932 211.92529297 450.22705078 C209.55813604 450.22648537 207.19097875 450.22680576 204.82382202 450.22793579 C198.45315889 450.22850524 192.0825724 450.21681759 185.71192694 450.20278788 C179.71191317 450.19148931 173.71189904 450.18953541 167.71187665 450.18748413 C155.84224594 450.18312685 143.97264301 450.1698717 132.10302734 450.15087891 C120.58545061 450.1324688 109.06788148 450.11833754 97.55029297 450.10986328 C96.83814305 450.10933783 96.12599314 450.10881239 95.39226292 450.10827102 C91.81895729 450.10566059 88.2456516 450.10313326 84.67234588 450.10064721 C55.11487935 450.0799761 25.55744017 450.04465421 -4 450 C-2.54035031 446.92827633 -1.2585646 445.10991299 1.375 442.9375 C5.06059669 439.81216801 8.67609272 436.62674147 12.25 433.375 C12.75708496 432.91988037 13.26416992 432.46476074 13.78662109 431.99584961 C16.85846643 429.19731636 19.43196524 426.25626808 22 423 C23.66004511 421.32673798 25.32693054 419.66023918 27 418 C40.38539316 403.1298033 50.664667 388.55550992 50.50793457 367.88198853 C50.51417453 366.60361032 50.5204145 365.32523211 50.52684355 364.00811517 C50.54342403 360.48922767 50.53534261 356.97077834 50.52289867 353.45188999 C50.51380361 349.64536244 50.52784 345.83890731 50.53881836 342.03239441 C50.5565619 334.5865236 50.55278195 327.14081451 50.5411678 319.69493748 C50.53211594 313.63980587 50.53091704 307.58471942 50.53526306 301.52958298 C50.53587599 300.6661387 50.53648893 299.80269441 50.53712043 298.91308516 C50.5383994 297.15871552 50.53969626 295.4043459 50.5410108 293.6499763 C50.55240475 277.21624308 50.53932222 260.78259925 50.51780933 244.34888069 C50.49994578 230.26737308 50.50303862 216.18599741 50.52148438 202.10449219 C50.54292303 185.73066995 50.55129955 169.35692602 50.53903532 152.98309171 C50.5377612 151.234744 50.53650372 149.48639628 50.53526306 147.73804855 C50.53433741 146.44790997 50.53433741 146.44790997 50.53339306 145.13170797 C50.52994865 139.08931833 50.53574895 133.04697862 50.54518127 127.00459671 C50.55643626 119.63291065 50.55328831 112.26139481 50.5320583 104.88972808 C50.5215937 101.13310163 50.51734673 97.37675829 50.53065491 93.62013435 C50.54489961 89.53717269 50.5278155 85.4549169 50.50793457 81.37197876 C50.51685746 80.1994822 50.52578034 79.02698564 50.53497362 77.81895888 C50.33897787 56.97355074 39.55925813 41.72434994 26 27 C25.45061768 26.48719482 24.90123535 25.97438965 24.33520508 25.44604492 C23 24 23 24 23 22 C22.4023584 21.72905518 21.8047168 21.45811035 21.18896484 21.17895508 C19.02812475 20.01514771 17.67156393 18.89050799 15.9765625 17.13671875 C15.43 16.57919922 14.8834375 16.02167969 14.3203125 15.44726562 C13.76085937 14.86654297 13.20140625 14.28582031 12.625 13.6875 C9.39464091 10.35524874 6.21404533 7.10973056 2.5859375 4.20703125 C1.73257812 3.47871094 0.87921875 2.75039063 0 2 C0 1.34 0 0.68 0 0 Z M136 83 C135.976879 96.0211064 135.95908616 109.04220795 135.94818783 122.06333065 C135.94295847 128.10887817 135.93585986 134.1544117 135.92456055 140.19995117 C135.91373355 146.02894288 135.90772357 151.85792109 135.90512276 157.68692207 C135.90326817 159.9161761 135.89964692 162.14542935 135.89426994 164.37467766 C135.88706201 167.48539734 135.88600895 170.59606049 135.88647461 173.70678711 C135.88287933 174.63826569 135.87928406 175.56974426 135.87557983 176.52944946 C135.46841189 180.58599247 135.46841189 180.58599247 137 184 C138.8428895 184.09917568 140.68960063 184.12799337 142.53515625 184.12939453 C143.72149658 184.13254669 144.90783691 184.13569885 146.13012695 184.13894653 C148.07665161 184.13591019 148.07665161 184.13591019 150.0625 184.1328125 C151.41040057 184.13348673 152.75830102 184.13445775 154.10620117 184.13571167 C156.94776555 184.1371911 159.78929863 184.13503165 162.63085938 184.13037109 C166.22256468 184.12475968 169.81419462 184.12799975 173.40589714 184.13379765 C213.31660733 185.53000616 213.31660733 185.53000616 247.75 168 C255.61963465 159.72506228 260.93442753 149.50423614 262 138 C262.06960938 137.30003906 262.13921875 136.60007812 262.2109375 135.87890625 C262.85118159 122.45840512 258.15905069 110.54456649 249.77734375 100.27734375 C239.23705124 88.91439426 226.07862739 83.41834108 210.69702148 82.7375946 C205.91478394 82.61897872 201.13453427 82.66138023 196.3515625 82.70703125 C194.60037605 82.71264172 192.84918483 82.71690493 191.09799194 82.71989441 C186.53762304 82.7312292 181.97755081 82.76059532 177.41729736 82.79400635 C172.74438487 82.82495549 168.07142342 82.83845229 163.3984375 82.85351562 C154.26549621 82.88547853 145.13277299 82.93653332 136 83 Z M136 252 C135.97667023 266.97686306 135.95902044 281.95372472 135.94818783 296.93060207 C135.94302504 303.88416081 135.93598266 310.83770827 135.92456055 317.79125977 C135.91355306 324.49557209 135.90772379 331.19987025 135.90512276 337.90419197 C135.90326798 340.46837613 135.89964636 343.03255962 135.89426994 345.59673882 C135.88706341 349.17445158 135.88600889 352.75211519 135.88647461 356.32983398 C135.88287933 357.40157364 135.87928406 358.47331329 135.87557983 359.57752991 C135.8769545 360.54653229 135.87832916 361.51553467 135.87974548 362.51390076 C135.87882369 363.36102851 135.8779019 364.20815626 135.87695217 365.08095455 C135.78845598 367.00859312 135.78845598 367.00859312 137 368 C139.32547263 368.10027245 141.62125066 368.13618952 143.94726562 368.12939453 C144.67422638 368.13114685 145.40118713 368.13289917 146.150177 368.13470459 C148.56889187 368.13912765 150.9875343 368.13618111 153.40625 368.1328125 C155.08719904 368.13348599 156.76814798 368.1344564 158.44909668 368.13571167 C161.98332643 368.13718973 165.51753098 368.1350328 169.05175781 368.13037109 C173.56289966 368.12470866 178.07398157 368.12792983 182.58512115 368.13394356 C186.06315554 368.13757622 189.54117599 368.13639761 193.01921082 368.13381577 C194.68084215 368.13315214 196.34247479 368.13395505 198.00410461 368.13629532 C211.37087 368.90551511 211.37087 368.90551511 224 366 C225.134375 365.896875 226.26875 365.79375 227.4375 365.6875 C241.67404212 363.98838286 254.93848171 355.51289755 263.9765625 344.6171875 C273.23263417 332.05256255 275.99591449 318.29161426 274.59375 302.8359375 C272.80440911 291.27585358 268.50427465 282.04093527 261 273 C260.37996094 272.16726563 259.75992188 271.33453125 259.12109375 270.4765625 C249.97424753 259.7968194 235.13394405 253.88291267 221.39355469 252.68579102 C204.82572702 251.70098258 188.23011707 251.88391947 171.64093018 251.93133545 C167.61088596 251.94172614 163.58083511 251.94616615 159.55078125 251.95117188 C151.7005032 251.96176708 143.85025721 251.97874166 136 252 Z " fill="#D42C2F" transform="translate(489,267)"/>
<path d="M0 0 C1.38180954 0.00273422 1.38180954 0.00273422 2.79153442 0.00552368 C48.48621157 0.15754381 90.82356011 12.22820751 123.9296875 44.828125 C138.57579302 60.05295201 142.80813503 75.2868658 142.88671875 96.01171875 C142.90359591 97.69994893 142.92175015 99.38816678 142.94111633 101.07637024 C142.98829321 105.48371525 143.01831033 109.89101024 143.04455566 114.29852295 C143.07452572 118.81044387 143.12099885 123.32219293 143.16601562 127.83398438 C143.25168033 136.66007115 143.31918781 145.48617416 143.375 154.3125 C140.65626124 155.67186938 138.5159263 155.43968112 135.47241211 155.44189453 C134.23450424 155.44504669 132.99659637 155.44819885 131.72117615 155.45144653 C130.36489832 155.44965689 129.00862082 155.44760597 127.65234375 155.4453125 C126.26754235 155.4459858 124.88274106 155.44695605 123.49794006 155.44821167 C120.59521357 155.44968691 117.69251784 155.44753934 114.78979492 155.44287109 C111.0614703 155.43716858 107.33321758 155.44045719 103.60489559 155.44644356 C100.74568638 155.45004933 97.88649434 155.44891061 95.02728462 155.44631577 C93.65210525 155.44564682 92.27692433 155.44647381 90.90174675 155.44879532 C88.98389591 155.45132264 87.06603962 155.44679053 85.14819336 155.44189453 C84.05502304 155.44109894 82.96185272 155.44030334 81.83555603 155.43948364 C79.375 155.3125 79.375 155.3125 78.375 154.3125 C77.95617757 152.25454518 77.56580719 150.19078652 77.1875 148.125 C74.73582524 136.52669246 70.28760787 126.75617587 62.9140625 117.421875 C61.375 115.3125 61.375 115.3125 61.375 113.3125 C60.715 113.3125 60.055 113.3125 59.375 113.3125 C59.375 112.6525 59.375 111.9925 59.375 111.3125 C58.715 111.3125 58.055 111.3125 57.375 111.3125 C56.6325 110.2915625 56.6325 110.2915625 55.875 109.25 C46.00921879 97.65770708 28.32697592 90.05447778 13.375 88.3125 C-11.6064092 86.60133401 -33.43884593 89.99070494 -53.1796875 106.44140625 C-55.72943925 108.66953278 -58.19096483 110.95879602 -60.625 113.3125 C-61.64207031 114.29089844 -61.64207031 114.29089844 -62.6796875 115.2890625 C-92.3895926 146.19213648 -97.53149365 198.28982409 -96.81640625 238.859375 C-95.68412931 277.11466889 -90.17724381 322.76025619 -61.625 351.3125 C-61.08101562 351.85648438 -60.53703125 352.40046875 -59.9765625 352.9609375 C-44.16318063 367.70674929 -24.09901069 375.24365784 -2.625 376.3125 C-1.86316406 376.36535156 -1.10132813 376.41820312 -0.31640625 376.47265625 C18.37484226 377.19761193 37.73808246 370.82625361 52.375 359.3125 C53.10203125 358.57257813 53.8290625 357.83265625 54.578125 357.0703125 C56.375 355.3125 56.375 355.3125 58.375 355.3125 C58.375 354.6525 58.375 353.9925 58.375 353.3125 C59.055625 352.6525 59.73625 351.9925 60.4375 351.3125 C73.92552497 338.20549269 79.33838101 319.48075455 81.375 301.3125 C84.52834826 300.26138391 86.73012283 300.19179528 90.03979492 300.19897461 C91.20077194 300.19905014 92.36174896 300.19912567 93.5579071 300.19920349 C95.43770012 300.20694542 95.43770012 300.20694542 97.35546875 300.21484375 C98.63859451 300.2162587 99.92172028 300.21767365 101.24372864 300.21913147 C104.65170241 300.22294595 108.05963343 300.23276709 111.46759033 300.24383545 C114.94648663 300.25407257 118.42538985 300.25863402 121.90429688 300.26367188 C128.72788212 300.27439033 135.55143901 300.29145391 142.375 300.3125 C142.49140678 310.64894717 142.5799736 320.98523561 142.63406086 331.32220745 C142.6600344 336.12332684 142.69520554 340.92399419 142.75219727 345.72485352 C142.80695789 350.36739793 142.83651233 355.00951055 142.84938622 359.65235329 C142.85854775 361.41401773 142.87643585 363.17566146 142.90365028 364.93713951 C143.13510285 380.55466267 140.28141745 391.76174004 130.375 404.3125 C129.24964844 405.75882813 129.24964844 405.75882813 128.1015625 407.234375 C124.44927066 411.82097405 120.99217083 415.68979673 116.375 419.3125 C115.56675781 420.12203125 114.75851562 420.9315625 113.92578125 421.765625 C95.94389278 439.71997612 70.71823531 450.46320128 46.375 456.3125 C45.18390625 456.60898437 43.9928125 456.90546875 42.765625 457.2109375 C5.92557845 465.78431239 -35.84349019 463.01174628 -71.625 451.3125 C-72.33043945 451.08868652 -73.03587891 450.86487305 -73.76269531 450.63427734 C-117.51218114 436.51847939 -152.6781634 402.62527987 -173.625 362.3125 C-175.5597262 358.23216084 -177.37880434 354.10558053 -179.11376953 349.93652344 C-180.52235041 345.91477101 -180.52235041 345.91477101 -183.625 343.3125 C-183.85885259 341.68625905 -184.08504129 340.05860575 -184.27587891 338.42675781 C-184.79620976 335.27566329 -185.86115596 332.36475299 -186.89746094 329.35058594 C-197.18620274 299.40672373 -200.94371319 267.84196263 -201.625 236.3125 C-201.64159668 235.5788623 -201.65819336 234.84522461 -201.67529297 234.08935547 C-201.76344912 229.49326396 -201.72460828 224.90806392 -201.625 220.3125 C-201.61243164 219.60754395 -201.59986328 218.90258789 -201.58691406 218.17626953 C-200.33804407 159.84894354 -183.6509303 102.10510401 -143.703125 58.63671875 C-142.27642328 57.04106551 -140.90177464 55.39779211 -139.57421875 53.71875 C-118.73429688 27.99251378 -81.4345986 12.25592245 -50.3125 4.9375 C-49.3006665 4.69878174 -48.28883301 4.46006348 -47.24633789 4.21411133 C-31.54381978 0.73542672 -16.0274635 -0.06597896 0 0 Z " fill="#D42C2F" transform="translate(370.625,262.6875)"/>
<path d="M0 0 C0.33 0 0.66 0 1 0 C2.20857105 14.15438692 2.15682251 28.29985606 2.16004276 42.49621451 C2.16191696 46.06192503 2.16947487 49.62762475 2.17617798 53.19332886 C2.1896578 60.9592654 2.1957676 68.72519671 2.20018864 76.49114299 C2.20296453 81.34640215 2.20720383 86.20165936 2.21169281 91.05691719 C2.22386402 104.52299721 2.23417266 117.9890757 2.2375679 131.45516109 C2.23778747 132.3138452 2.23800703 133.17252931 2.23823325 134.05723414 C2.23845153 134.91782517 2.23866981 135.77841619 2.2388947 136.66508573 C2.23933815 138.40864114 2.23978471 140.15219655 2.24023438 141.89575195 C2.2404558 142.76059326 2.24067723 143.62543457 2.24090537 144.5164832 C2.24486114 158.55793851 2.26234842 172.59934219 2.2855939 186.64077752 C2.30931423 201.08627809 2.32176979 215.53175269 2.32293582 229.97727305 C2.32385134 238.07656689 2.32957428 246.17579311 2.34775543 254.27506828 C2.36316449 261.16288627 2.36827152 268.05061563 2.36001733 274.93844759 C2.35611584 278.44952759 2.35701633 281.96042911 2.37107468 285.47148705 C2.38376287 289.28179908 2.37793402 293.09165348 2.36749268 296.90196228 C2.37554908 298.00488064 2.38360548 299.107799 2.39190602 300.24413913 C2.35053714 306.70190054 1.49068474 312.0245419 -1 318 C-1.33 318 -1.66 318 -2 318 C-1.92964808 317.42773198 -1.85929616 316.85546396 -1.78681237 316.26585448 C-0.99112966 309.1978694 -0.84772737 302.21247363 -0.84178162 295.10458374 C-0.83684364 293.83830536 -0.83190566 292.57202699 -0.82681805 291.26737654 C-0.81334048 287.77828849 -0.805849 284.28921009 -0.79939139 280.80010295 C-0.79134137 277.0279076 -0.77765965 273.25573204 -0.76467896 269.48355103 C-0.74298109 262.9564921 -0.72481235 256.42943111 -0.70907402 249.90235519 C-0.68631418 240.46542193 -0.65818001 231.02851064 -0.62875474 221.59159608 C-0.58115355 206.27900998 -0.53786924 190.96641486 -0.49731445 175.65380859 C-0.45792142 160.78335876 -0.41648613 145.91291691 -0.37231445 131.04248047 C-0.36959018 130.12511307 -0.36686591 129.20774566 -0.36405908 128.26257925 C-0.35037898 123.66019155 -0.33665883 119.05780396 -0.32291877 114.45541644 C-0.20907146 76.30362762 -0.10223627 38.1518216 0 0 Z " fill="#D2161A" transform="translate(541,336)"/>
<path d="M0 0 C23.76 0 47.52 0 72 0 C72 0.33 72 0.66 72 1 C48.57 1 25.14 1 1 1 C1.33 9.91 1.66 18.82 2 28 C2.08425216 35.05572093 2.14217361 42.10489908 2.1328125 49.16015625 C2.13348968 51.02249667 2.1344631 52.884837 2.13571167 54.74717712 C2.13716006 58.57910027 2.1351225 62.41099961 2.13037109 66.24291992 C2.12457308 71.15756317 2.12803285 76.072153 2.13394356 80.98679447 C2.13754177 84.79990551 2.13641576 88.61300363 2.13381577 92.42611504 C2.13314962 94.24145959 2.133964 96.05680533 2.13629532 97.87214851 C2.13882039 100.38102529 2.13498801 102.88981166 2.12939453 105.39868164 C2.13243088 106.51648766 2.13243088 106.51648766 2.13552856 107.65687561 C2.11428621 112.77142758 2.11428621 112.77142758 1 115 C0.34 115 -0.32 115 -1 115 C-1.02334947 100.44882951 -1.04092281 85.89766192 -1.05181217 71.34647655 C-1.05697077 64.59027162 -1.06400518 57.83407832 -1.07543945 51.07788086 C-1.08646246 44.56159318 -1.09227934 38.04531306 -1.09487724 31.52901649 C-1.09672937 29.03905357 -1.10034593 26.54909132 -1.10573006 24.05913353 C-1.11295598 20.58001635 -1.11399028 17.10094961 -1.11352539 13.62182617 C-1.11712067 12.58532928 -1.12071594 11.5488324 -1.12442017 10.48092651 C-1.12235817 9.06116264 -1.12235817 9.06116264 -1.12025452 7.61271667 C-1.12117631 6.78955554 -1.1220981 5.96639441 -1.12304783 5.11828899 C-1 3 -1 3 0 0 Z " fill="#CF0F12" transform="translate(624,517)"/>
<path d="M0 0 C19.47 0 38.94 0 59 0 C59.12032643 20.09451348 59.12032643 20.09451348 59.14648438 28.64648438 C59.16443221 34.48665522 59.18568611 40.32668524 59.22631836 46.16674805 C59.25886528 50.87405632 59.27684317 55.58121363 59.28463173 60.28862572 C59.29018364 62.08642136 59.30102494 63.88420854 59.31719017 65.68194008 C59.33890262 68.19610204 59.34196956 70.70963664 59.34057617 73.22387695 C59.351362 73.97050095 59.36214783 74.71712494 59.3732605 75.4863739 C59.34679618 79.88643076 59.27272492 80.72727508 56 84 C56.33 57.27 56.66 30.54 57 3 C38.19 3 19.38 3 0 3 C-0.33 3.66 -0.66 4.32 -1 5 C-0.67 3.35 -0.34 1.7 0 0 Z " fill="#D32124" transform="translate(454,563)"/>
<path d="M0 0 C26.07 0.33 52.14 0.66 79 1 C79 1.33 79 1.66 79 2 C53.59 2 28.18 2 2 2 C2.33 28.73 2.66 55.46 3 83 C2.34 83 1.68 83 1 83 C1 88.28 1 93.56 1 99 C0.67 99 0.34 99 0 99 C0 66.33 0 33.66 0 0 Z " fill="#CC0A0D" transform="translate(623,347)"/>
<path d="M0 0 C2.31 0.33 4.62 0.66 7 1 C7 1.66 7 2.32 7 3 C81.91 3 156.82 3 234 3 C229.46289869 5.26855065 226.05327759 5.25895284 221.12896729 5.20254517 C220.22308451 5.20017046 219.31720174 5.19779576 218.38386798 5.1953491 C215.34205019 5.18491484 212.30052131 5.16003593 209.25878906 5.13525391 C207.08089082 5.12483005 204.90298816 5.1152944 202.7250824 5.10658264 C196.80601188 5.08037964 190.88707992 5.04171373 184.96809483 5.00085878 C178.78481729 4.96028299 172.6014864 4.93110148 166.41815186 4.90072632 C154.70616989 4.84145305 142.99427241 4.77188946 131.28237033 4.69865549 C117.95004567 4.61562647 104.61766767 4.54435181 91.28527117 4.47388959 C63.85676873 4.32867208 36.42836514 4.16905407 9 4 C8.67 4.66 8.34 5.32 8 6 C5.4362736 6 4.16977424 5.3561089 2 4 C0.75 1.875 0.75 1.875 0 0 Z " fill="#D53B39" transform="translate(489,267)"/>
<path d="M0 0 C-5.79904241 3.86602827 -13.47077242 3.14815172 -20.27368164 3.11352539 C-21.04552795 3.11367142 -21.81737427 3.11381744 -22.61260986 3.1139679 C-25.12848866 3.11327898 -27.64429061 3.10553513 -30.16015625 3.09765625 C-31.91849222 3.09578843 -33.67682872 3.09436625 -35.43516541 3.09336853 C-40.03658515 3.08957198 -44.63797274 3.0797665 -49.23937988 3.06866455 C-53.94538946 3.05838853 -58.65140429 3.05385771 -63.35742188 3.04882812 C-72.57162862 3.03814136 -81.78581162 3.02109977 -91 3 C-87.37370211 0.73148885 -84.2900611 0.72632118 -80.06689453 0.68115234 C-79.37678787 0.67110672 -78.68668121 0.6610611 -77.97566223 0.65071106 C-75.69472036 0.61984241 -73.41389735 0.60281284 -71.1328125 0.5859375 C-69.53538033 0.56720095 -67.93795779 0.54762574 -66.34054565 0.5272522 C-62.12754163 0.475879 -57.91450456 0.43632981 -53.70135498 0.39910889 C-49.46227528 0.35944064 -45.22334133 0.30795007 -40.984375 0.2578125 C-27.32253049 0.10103547 -13.66291932 -0.0290076 0 0 Z " fill="#D11113" transform="translate(716,634)"/>
<path d="M0 0 C2.31720358 3.47580537 2.24837561 4.80825926 2.24291992 8.90844727 C2.24599655 10.12303116 2.24907318 11.33761505 2.25224304 12.58900452 C2.24505753 13.90154709 2.23787201 15.21408966 2.23046875 16.56640625 C2.22927651 17.92496192 2.22882388 19.28351842 2.2290802 20.64207458 C2.22751666 23.48759124 2.2192363 26.33298185 2.20581055 29.1784668 C2.18880471 32.82932451 2.18499675 36.48004394 2.18575573 40.13093662 C2.18548409 42.93529078 2.18000412 45.73961459 2.17275429 48.54395866 C2.16801716 50.54594936 2.16629131 52.54794644 2.16459656 54.54994202 C2.15821671 55.76137375 2.15183685 56.97280548 2.14526367 58.22094727 C2.14145187 59.29111588 2.13764008 60.36128448 2.13371277 61.46388245 C2 64 2 64 1 66 C0.34 66 -0.32 66 -1 66 C-1.02546982 58.2078522 -1.04291705 50.41571523 -1.05493164 42.62353516 C-1.05994333 39.97574462 -1.06675444 37.32795682 -1.07543945 34.68017578 C-1.08764403 30.86229777 -1.0932601 27.04445654 -1.09765625 23.2265625 C-1.10281754 22.05324371 -1.10797882 20.87992493 -1.11329651 19.67105103 C-1.1137429 13.04933095 -0.82157172 6.57245731 0 0 Z " fill="#CF181B" transform="translate(624,566)"/>
<path d="M0 0 C0.66 0 1.32 0 2 0 C-2.20428171 13.91271965 -13.11983538 24.98316189 -22.7265625 35.5 C-24.32240754 37.25488114 -25.89897218 39.02739677 -27.4609375 40.8125 C-28.65589844 42.17375 -28.65589844 42.17375 -29.875 43.5625 C-30.59429687 44.38878906 -31.31359375 45.21507812 -32.0546875 46.06640625 C-34 48 -34 48 -37 49 C-35.1628218 44.71325087 -32.22317434 42.15122291 -28.875 39 C-26.94572447 37.15792546 -26.94572447 37.15792546 -26.125 35.0625 C-24.73906503 32.52161923 -22.81261278 31.13305147 -20.57373047 29.35253906 C-12.0949849 22.06550052 -4.79008251 9.97166216 0 0 Z " fill="#D31D1F" transform="translate(537,655)"/>
<path d="M0 0 C18.15 0 36.3 0 55 0 C55 0.66 55 1.32 55 2 C55.66 2.33 56.32 2.66 57 3 C38.19 3 19.38 3 0 3 C-0.33 3.66 -0.66 4.32 -1 5 C-0.67 3.35 -0.34 1.7 0 0 Z " fill="#D40D0F" transform="translate(454,563)"/>
<path d="M0 0 C0.33 0 0.66 0 1 0 C1.33 22.77 1.66 45.54 2 69 C1.34 69 0.68 69 0 69 C0 74.28 0 79.56 0 85 C-0.33 85 -0.66 85 -1 85 C-1.18591149 56.65564897 -0.647002 28.33624312 0 0 Z " fill="#C90F14" transform="translate(624,361)"/>
<path d="M0 0 C5.89325676 10.98778277 3.27747824 26.52301005 1.625 38.4375 C1.49899414 39.36771973 1.37298828 40.29793945 1.24316406 41.25634766 C1.11393555 42.11921387 0.98470703 42.98208008 0.8515625 43.87109375 C0.73635254 44.64380615 0.62114258 45.41651855 0.50244141 46.21264648 C0.25373291 47.09738647 0.25373291 47.09738647 0 48 C-0.99 48.495 -0.99 48.495 -2 49 C-1.85652682 46.85400757 -1.71008875 44.70821331 -1.5625 42.5625 C-1.48128906 41.36753906 -1.40007813 40.17257812 -1.31640625 38.94140625 C-1.09817016 36.22288503 -0.8188297 33.57344043 -0.46875 30.875 C0.23315451 24.74136381 0.10685289 18.60255168 0.0625 12.4375 C0.05798828 11.23802734 0.05347656 10.03855469 0.04882812 8.80273438 C0.03713769 5.86843641 0.02075138 2.93424551 0 0 Z " fill="#D12123" transform="translate(850,569)"/>
<path d="M0 0 C9.62979158 1.7566433 18.60203948 13.97507921 24.20507812 21.65087891 C26.45508945 24.95643902 28.62385562 28.23967132 30 32 C29.16796875 34.34375 29.16796875 34.34375 28 36 C27.67 35.0925 27.34 34.185 27 33.25 C23.55730844 25.21705303 18.28646399 18.01100078 12 12 C8 8 4 4 0 0 Z " fill="#D31E20" transform="translate(479,296)"/>
<path d="M0 0 C3.53677977 1.30991843 5.22990454 3.41927321 7.55078125 6.3046875 C14.04575304 13.90257903 24.45644619 21.8188154 34 25 C33.505 26.485 33.505 26.485 33 28 C25.90067704 24.78381402 19.95382528 21.01714752 14 16 C13.29746094 15.41992188 12.59492188 14.83984375 11.87109375 14.2421875 C7.52613655 10.56505104 3.27034867 6.69493237 0 2 C0 1.34 0 0.68 0 0 Z " fill="#D31D1F" transform="translate(300,606)"/>
<path d="M0 0 C11.63836958 1.39453837 20.62113605 9.36659428 28 18 C33 24.68171558 33 24.68171558 33 29 C32.34 29 31.68 29 31 29 C29.8946653 27.37485926 28.86646119 25.69701265 27.875 24 C20.66549577 12.51765315 11.75657994 7.16364385 0 1 C0 0.67 0 0.34 0 0 Z " fill="#D32022" transform="translate(715,351)"/>
<path d="M0 0 C0.66 0 1.32 0 2 0 C0.66367837 5.07038606 -1.67730889 8.59223552 -5.0625 12.5 C-5.79786987 13.35646118 -5.79786987 13.35646118 -6.5480957 14.23022461 C-10.53661421 18.73968719 -14.67850619 22.13981868 -20 25 C-20.73605469 25.42023437 -21.47210937 25.84046875 -22.23046875 26.2734375 C-24.375 27.4375 -24.375 27.4375 -28 29 C-28.99 28.67 -29.98 28.34 -31 28 C-30.09378906 27.5153125 -29.18757812 27.030625 -28.25390625 26.53125 C-16.24112485 19.97882378 -6.29638355 12.5927671 0 0 Z " fill="#D41F21" transform="translate(758,602)"/>
<path d="M0 0 C11.02180544 2.6104276 20.95155363 12.03386851 27.15234375 21.171875 C30.62909531 26.92744788 30.62909531 26.92744788 32 30 C31.67 30.66 31.34 31.32 31 32 C30.49210938 31.29875 29.98421875 30.5975 29.4609375 29.875 C28.02342373 27.89370761 26.5789887 25.91742464 25.12890625 23.9453125 C23.91022349 22.25928167 22.71418318 20.55504417 21.58984375 18.8046875 C17.02187335 11.90383925 8.90432174 5.63477391 1 3 C0.67 2.01 0.34 1.02 0 0 Z " fill="#D31E20" transform="translate(729,523)"/>
<path d="M0 0 C10.93986815 -0.20290327 21.83064228 0.42325973 32.75 1 C34.62238137 1.09663485 36.49477713 1.19299118 38.3671875 1.2890625 C42.9116306 1.52283247 47.45586254 1.76036526 52 2 C52 2.33 52 2.66 52 3 C46.20167259 3.04978091 40.40347216 3.08589861 34.60498047 3.10986328 C32.6362084 3.1198636 30.66745095 3.13346823 28.69873047 3.15087891 C25.85380419 3.1753917 23.00907585 3.18654306 20.1640625 3.1953125 C19.29697662 3.20563507 18.42989075 3.21595764 17.53652954 3.22659302 C11.48211145 3.22768167 5.88985576 2.38586575 0 1 C0 0.67 0 0.34 0 0 Z " fill="#D11A1B" transform="translate(332,720)"/>
<path d="M0 0 C2.60313402 3.26386835 4.55808692 6.71767844 6.5625 10.375 C11.63115252 19.45105969 17.75108235 27.70855587 24 36 C19.26527603 35.27236926 17.81430548 32.70007296 15.0703125 29.01171875 C11.20435027 23.38783785 7.61277751 17.58927321 4.0715332 11.7565918 C3.13670838 10.22410955 2.17777305 8.70638693 1.21484375 7.19140625 C-0.21589653 4.6105532 -0.24914767 2.90672284 0 0 Z " fill="#D21E20" transform="translate(198,622)"/>
<path d="M0 0 C-1 2 -1 2 -2.6796875 2.59423828 C-5.11696152 3.12278414 -7.55330207 3.6414939 -10 4.125 C-10.89468994 4.30313232 -11.78937988 4.48126465 -12.71118164 4.66479492 C-22.60356666 6.49529283 -33.11655615 7.34231906 -43 5 C-43 4.67 -43 4.34 -43 4 C-41.13021484 3.94392578 -41.13021484 3.94392578 -39.22265625 3.88671875 C-29.84592461 3.54502272 -20.76438714 2.89271007 -11.55883789 1.01635742 C-7.63601783 0.22416013 -4.00175254 -0.14247726 0 0 Z " fill="#D21A1C" transform="translate(401,636)"/>
<path d="M0 0 C11.36037479 5.26639891 19.53706902 17.07413805 25 28 C25 28.66 25 29.32 25 30 C24.34 30 23.68 30 23 30 C21.38560681 27.75762267 19.8968362 25.52750986 18.4375 23.1875 C18.02564453 22.54490234 17.61378906 21.90230469 17.18945312 21.24023438 C15.46842659 18.52208281 14.0210553 16.06316591 13 13 C12.34 13 11.68 13 11 13 C11 12.34 11 11.68 11 11 C10.34 11 9.68 11 9 11 C7.66104368 9.33784732 6.32869858 7.67036393 5 6 C4.0925 5.278125 3.185 4.55625 2.25 3.8125 C1.5075 3.214375 0.765 2.61625 0 2 C0 1.34 0 0.68 0 0 Z " fill="#D31D1F" transform="translate(419,363)"/>
<path d="M0 0 C0.99 0.33 1.98 0.66 3 1 C2.55011719 1.53625 2.10023438 2.0725 1.63671875 2.625 C-3.35520228 8.70734065 -7.85153263 15.01823707 -12.22973633 21.55273438 C-12.67599365 22.21466797 -13.12225098 22.87660156 -13.58203125 23.55859375 C-13.97624268 24.14954834 -14.3704541 24.74050293 -14.77661133 25.34936523 C-16.05319009 27.07176576 -17.44952594 28.52305069 -19 30 C-17.62169813 20.38634442 -9.98110897 12.49225985 -3.91796875 5.3125 C-1.89412844 2.95409277 -1.89412844 2.95409277 0 0 Z " fill="#D32122" transform="translate(222,326)"/>
<path d="M0 0 C5.83327841 0.6957121 9.18534407 6.07093102 12.70410156 10.32958984 C22 22.31198191 22 22.31198191 22 27 C17.85731385 25.61910462 16.6247055 22.7376949 14.4375 19.1875 C14.03853516 18.55779297 13.63957031 17.92808594 13.22851562 17.27929688 C11.32839631 14.25623559 9.50911484 11.23847887 8 8 C7.34 8 6.68 8 6 8 C4.4921875 6.25 4.4921875 6.25 2.875 4 C2.33617187 3.2575 1.79734375 2.515 1.2421875 1.75 C0.62730469 0.88375 0.62730469 0.88375 0 0 Z " fill="#D21F21" transform="translate(818,504)"/>
<path d="M0 0 C0.33 0 0.66 0 1 0 C0.39651022 5.61767031 -1.05613023 10.56024318 -2.9375 15.875 C-5.04764719 21.86145163 -6.75343663 27.77179665 -8 34 C-8.66 34 -9.32 34 -10 34 C-9.45802774 27.41041048 -8.18670107 21.58308837 -6.125 15.3125 C-5.86847656 14.49716797 -5.61195313 13.68183594 -5.34765625 12.84179688 C-3.90017466 8.34296591 -2.25261283 4.17475251 0 0 Z " fill="#D21E1F" transform="translate(287,407)"/>
<path d="M0 0 C-1.1449048 3.43471441 -2.14123781 3.80745334 -5.06640625 5.65234375 C-12.69176888 10.96699043 -19.02715627 17.9427014 -25 25 C-25.66 24.34 -26.32 23.68 -27 23 C-6.5945122 0 -6.5945122 0 0 0 Z " fill="#D11C1E" transform="translate(327,360)"/>
<path d="M0 0 C0.66 0 1.32 0 2 0 C-0.31107441 10.63094229 -7.14424173 18.8218112 -14 27 C-14.66 26.67 -15.32 26.34 -16 26 C-14.16150693 23.20549054 -12.31548923 20.43510599 -10.3515625 17.7265625 C-6.25920598 12.06159736 -2.92931585 6.34460114 0 0 Z " fill="#D41F20" transform="translate(446,591)"/>
<path d="M0 0 C0.66 0.33 1.32 0.66 2 1 C0.02 2.32 -1.96 3.64 -4 5 C-2.77023437 5.50660156 -2.77023437 5.50660156 -1.515625 6.0234375 C-0.43796875 6.46945312 0.6396875 6.91546875 1.75 7.375 C3.35101562 8.03628906 3.35101562 8.03628906 4.984375 8.7109375 C7.37555926 9.73307585 9.69383183 10.80213595 12 12 C12 12.66 12 13.32 12 14 C7.31196344 13.26951699 3.09114445 11.63363115 -1.3125 9.9375 C-2.05306641 9.65583984 -2.79363281 9.37417969 -3.55664062 9.08398438 C-5.37242655 8.39281425 -7.18639899 7.69688311 -9 7 C-9 6.01 -9 5.02 -9 4 C-7.54618103 3.30300448 -6.08677047 2.61766134 -4.625 1.9375 C-3.40683594 1.36322266 -3.40683594 1.36322266 -2.1640625 0.77734375 C-1.09285156 0.39255859 -1.09285156 0.39255859 0 0 Z " fill="#D21E20" transform="translate(783,473)"/>
<path d="M0 0 C3.13108623 1.36518076 4.99383017 2.83217855 7.1875 5.4375 C7.78046875 6.13746094 8.3734375 6.83742188 8.984375 7.55859375 C12.67261488 12.02593857 16.35186483 16.49980605 20 21 C19.34 21.66 18.68 22.32 18 23 C17.16855469 22.02417969 16.33710937 21.04835938 15.48046875 20.04296875 C14.38287845 18.75775618 13.28521855 17.47260303 12.1875 16.1875 C11.64029297 15.54490234 11.09308594 14.90230469 10.52929688 14.24023438 C9.99755859 13.61826172 9.46582031 12.99628906 8.91796875 12.35546875 C8.18743286 11.49924927 8.18743286 11.49924927 7.44213867 10.62573242 C6.0080295 8.96018312 6.0080295 8.96018312 4.31762695 7.4152832 C3 6 3 6 3 4 C2.01 3.67 1.02 3.34 0 3 C0 2.01 0 1.02 0 0 Z " fill="#D52122" transform="translate(509,285)"/>
<path d="M0 0 C0.33 0 0.66 0 1 0 C1.34096946 4.24942257 1.67133864 8.4996092 2 12.75 C2.09539062 13.93722656 2.19078125 15.12445312 2.2890625 16.34765625 C2.86809728 23.916468 3.12563177 31.40974703 3 39 C2.67 39 2.34 39 2 39 C-0.66471182 25.69149577 -1.18213861 13.51625957 0 0 Z " fill="#D22426" transform="translate(273,507)"/>
<path d="M0 0 C3.16890978 2.30466166 5.73514578 4.77203743 8.25 7.75 C12.11371341 12.28751774 16.47218257 16.13954795 21 20 C20.01 20.33 19.02 20.66 18 21 C4.57320668 9.36161153 4.57320668 9.36161153 0 3 C0 2.01 0 1.02 0 0 Z " fill="#D22022" transform="translate(222,659)"/>
<path d="M0 0 C0.66 0 1.32 0 2 0 C1.47932209 10.42726018 0.528829 20.66927199 -1 31 C-1.33 31 -1.66 31 -2 31 C-2.21367504 20.42308574 -2.06142435 10.41755521 0 0 Z " fill="#D11D1E" transform="translate(174,433)"/>
<path d="M0 0 C0.33 0.99 0.66 1.98 1 3 C-0.25046394 5.22438297 -1.51252335 7.1937221 -3 9.25 C-3.41064697 9.82903076 -3.82129395 10.40806152 -4.24438477 11.00463867 C-7.39198277 15.35660932 -10.6974205 19.72241174 -15 23 C-15.66 23 -16.32 23 -17 23 C-17 22.34 -17 21.68 -17 21 C-16.34 21 -15.68 21 -15 21 C-14.72542969 20.40445313 -14.45085938 19.80890625 -14.16796875 19.1953125 C-13.04989224 17.09377739 -11.91307015 15.62027923 -10.3125 13.875 C-6.4777465 9.52894603 -3.25544943 4.78685908 0 0 Z " fill="#D01F20" transform="translate(832,655)"/>
<path d="M0 0 C0 0.66 0 1.32 0 2 C-1.99072643 3.55067112 -3.96953954 4.97475792 -6.0625 6.375 C-6.65796631 6.7776709 -7.25343262 7.1803418 -7.86694336 7.59521484 C-9.57163218 8.74004748 -11.28402458 9.87217832 -13 11 C-13.7528125 11.50015625 -14.505625 12.0003125 -15.28125 12.515625 C-19.44057351 15.10608087 -19.44057351 15.10608087 -22.18359375 14.5859375 C-22.78300781 14.39257812 -23.38242187 14.19921875 -24 14 C-23.24976563 13.57589844 -22.49953125 13.15179687 -21.7265625 12.71484375 C-15.56630735 9.18472272 -9.67979479 5.49564179 -3.9609375 1.28515625 C-2 0 -2 0 0 0 Z " fill="#CF2020" transform="translate(808,685)"/>
<path d="M0 0 C3.61478977 3.17783716 5.56144249 6.70109893 7.5625 11 C9.79564345 15.81497808 9.79564345 15.81497808 12.77734375 20.1875 C14 22 14 22 13.6875 24.25 C13.460625 24.8275 13.23375 25.405 13 26 C0 4.91666667 0 4.91666667 0 0 Z " fill="#D21A1D" transform="translate(285,579)"/>
<path d="M0 0 C0.33 0.99 0.66 1.98 1 3 C-2.57856831 9.07414884 -7.90534038 14.18407555 -13 19 C-13.99 18.67 -14.98 18.34 -16 18 C-15.26394531 17.28714844 -14.52789063 16.57429688 -13.76953125 15.83984375 C-8.66049212 10.84257304 -3.89169486 6.03883685 0 0 Z " fill="#D31F21" transform="translate(820,442)"/>
<path d="M0 0 C0.33 1.32 0.66 2.64 1 4 C1.66 4.33 2.32 4.66 3 5 C3 9.29 3 13.58 3 18 C2.34 18 1.68 18 1 18 C1 23.28 1 28.56 1 34 C0.67 34 0.34 34 0 34 C0 22.78 0 11.56 0 0 Z " fill="#D01518" transform="translate(623,412)"/>
<path d="M0 0 C5.08313032 7.62469548 3.30731901 18.33901156 2 27 C1.67 27 1.34 27 1 27 C0.24258075 17.97859571 -0.13534286 9.05293337 0 0 Z " fill="#D4191C" transform="translate(763,562)"/>
<path d="M0 0 C5.14131237 0.86626051 7.6032884 4.30825109 11 8 C11.52722656 8.5465625 12.05445313 9.093125 12.59765625 9.65625 C14 11.1875 14 11.1875 16 14 C15.625 16.17578125 15.625 16.17578125 15 18 C14.50371094 17.35933594 14.00742187 16.71867187 13.49609375 16.05859375 C9.65363709 11.16620586 5.76550084 6.561022 1.25 2.27734375 C0 1 0 1 0 0 Z " fill="#D32223" transform="translate(801,299)"/>
<path d="M0 0 C4.23614257 0.92707448 7.78180035 2.87762025 11.5625 4.9375 C12.57086914 5.47793945 12.57086914 5.47793945 13.59960938 6.02929688 C16.48675493 7.58611916 19.26900173 9.17933449 22 11 C19 12 19 12 16.9152832 11.19555664 C16.13499756 10.77137451 15.35471191 10.34719238 14.55078125 9.91015625 C13.70322266 9.45576172 12.85566406 9.00136719 11.98242188 8.53320312 C11.10134766 8.04787109 10.22027344 7.56253906 9.3125 7.0625 C8.41982422 6.58103516 7.52714844 6.09957031 6.60742188 5.60351562 C4.39992466 4.41123103 2.19792067 3.20982106 0 2 C0 1.34 0 0.68 0 0 Z " fill="#D11F21" transform="translate(262,695)"/>
<path d="M0 0 C4.79132712 0.49627682 8.02090287 2.80228492 11.8125 5.5625 C12.40998047 5.98724609 13.00746094 6.41199219 13.62304688 6.84960938 C15.08740533 7.89223259 16.54445735 8.94510452 18 10 C17.67 10.99 17.34 11.98 17 13 C14.91297017 11.58854052 12.83044062 10.17111469 10.75 8.75 C10.16347656 8.35425781 9.57695313 7.95851563 8.97265625 7.55078125 C5.65504285 5.27691139 2.75007523 2.96790297 0 0 Z " fill="#D21C1F" transform="translate(797,488)"/>
<path d="M0 0 C4.54615347 0.55667185 7.52874524 2.35249682 11.3125 4.875 C12.38113281 5.57367188 13.44976562 6.27234375 14.55078125 6.9921875 C15.35902344 7.65476562 16.16726563 8.31734375 17 9 C17 9.99 17 10.98 17 12 C15.94039063 11.36191406 14.88078125 10.72382813 13.7890625 10.06640625 C12.40106498 9.23173207 11.01304287 8.39709877 9.625 7.5625 C8.92632812 7.14162109 8.22765625 6.72074219 7.5078125 6.28710938 C6.8375 5.88427734 6.1671875 5.48144531 5.4765625 5.06640625 C4.85861816 4.69459229 4.24067383 4.32277832 3.60400391 3.93969727 C2.42685882 3.250073 1.22024659 2.6101233 0 2 C0 1.34 0 0.68 0 0 Z " fill="#D21B1E" transform="translate(458,282)"/>
<path d="M0 0 C0.99 0.33 1.98 0.66 3 1 C-5.90969798 7.98755502 -5.90969798 7.98755502 -11 10 C-11.99 9.67 -12.98 9.34 -14 9 C-13.49210938 8.68546875 -12.98421875 8.3709375 -12.4609375 8.046875 C-11.42839844 7.40492188 -11.42839844 7.40492188 -10.375 6.75 C-9.64667969 6.29882812 -8.91835938 5.84765625 -8.16796875 5.3828125 C-6.29091794 4.18555847 -4.49293528 2.92564104 -2.6875 1.625 C-1.800625 1.08875 -0.91375 0.5525 0 0 Z " fill="#D41E1F" transform="translate(732,438)"/>
<path d="M0 0 C0.33 0.66 0.66 1.32 1 2 C0.28735352 3.78759766 0.28735352 3.78759766 -0.87109375 5.9140625 C-1.28037109 6.67460937 -1.68964844 7.43515625 -2.11132812 8.21875 C-2.54896484 9.0128125 -2.98660156 9.806875 -3.4375 10.625 C-3.87126953 11.42679687 -4.30503906 12.22859375 -4.75195312 13.0546875 C-5.82756988 15.04044151 -6.91047213 17.0218546 -8 19 C-9.24780476 15.19099398 -8.50505334 13.302453 -6.69726562 9.72070312 C-6.36404297 9.09099609 -6.03082031 8.46128906 -5.6875 7.8125 C-5.36587891 7.17119141 -5.04425781 6.52988281 -4.71289062 5.86914062 C-2.28121668 1.14060834 -2.28121668 1.14060834 0 0 Z " fill="#D11B1C" transform="translate(201,358)"/>
<path d="M0 0 C0.33 0 0.66 0 1 0 C1.33 3.63 1.66 7.26 2 11 C1.67 11 1.34 11 1 11 C0.67 14.96 0.34 18.92 0 23 C-0.33 23 -0.66 23 -1 23 C-3.05857844 5.3918023 -3.05857844 5.3918023 0 0 Z " fill="#D23637" transform="translate(850,562)"/>
<path d="M0 0 C0.66 0 1.32 0 2 0 C4.28612778 7.15775723 5.44032071 13.48193151 5 21 C2.96016267 17.46132568 2.20375119 13.91801709 1.375 9.9375 C1.11460937 8.70902344 0.85421875 7.48054687 0.5859375 6.21484375 C0 3 0 3 0 0 Z " fill="#CF1D1F" transform="translate(845,546)"/>
<path d="M0 0 C0.33 0 0.66 0 1 0 C1.91160286 7.35793733 2.11459026 14.58982977 2 22 C1.01 22 0.02 22 -1 22 C-0.67 14.74 -0.34 7.48 0 0 Z " fill="#D12224" transform="translate(624,430)"/>
<path d="M0 0 C2.59583531 3.16081123 4.17645154 6.35773987 5.75 10.125 C6.42289063 11.70667969 6.42289063 11.70667969 7.109375 13.3203125 C8 16 8 16 7 18 C4.0073178 16.5036589 3.64419367 14.29309593 2.375 11.25 C1.92898437 10.20328125 1.48296875 9.1565625 1.0234375 8.078125 C0.04821684 5.1450186 -0.2151048 3.05675237 0 0 Z " fill="#D01C1E" transform="translate(189,602)"/>
<path d="M0 0 C2.20826378 -0.02722517 4.41662638 -0.04649729 6.625 -0.0625 C7.85476563 -0.07410156 9.08453125 -0.08570313 10.3515625 -0.09765625 C13.67723791 -0.00863924 16.74047588 0.36313913 20 1 C20 1.66 20 2.32 20 3 C13.06697907 3.22731216 6.7831364 2.42002108 0 1 C0 0.67 0 0.34 0 0 Z " fill="#D11A1C" transform="translate(395,265)"/>
<path d="M0 0 C0.33 0 0.66 0 1 0 C1.54903492 6.31390154 -0.05669718 11.39268586 -3 17 C-3.66 17.33 -4.32 17.66 -5 18 C-3.75971762 11.82777121 -2.10396411 5.93317878 0 0 Z " fill="#D21E1F" transform="translate(847,619)"/>
<path d="M0 0 C2.04419175 3.34146728 2.15708055 5.57559109 1.75 9.4375 C1.61851562 10.82775391 1.61851562 10.82775391 1.484375 12.24609375 C0.99092913 15.05157226 0.15057055 17.40178535 -1 20 C-1.33 20 -1.66 20 -2 20 C-1.47594437 13.30992818 -0.89536075 6.6512513 0 0 Z " fill="#D42324" transform="translate(452,564)"/>
<path d="M0 0 C3.58513106 1.62184501 6.58992323 3.79256239 9.75 6.125 C11.22726562 7.21167969 11.22726562 7.21167969 12.734375 8.3203125 C13.48203125 8.87460937 14.2296875 9.42890625 15 10 C14.01 10.33 13.02 10.66 12 11 C9.3359375 9.453125 9.3359375 9.453125 6.375 7.25 C5.39273438 6.53328125 4.41046875 5.8165625 3.3984375 5.078125 C1 3 1 3 0 0 Z " fill="#D11D1E" transform="translate(246,683)"/>
<path d="M0 0 C0.66 0 1.32 0 2 0 C0.71065316 3.86804053 -0.83854561 4.48143909 -4.25 6.625 C-5.20390625 7.23601562 -6.1578125 7.84703125 -7.140625 8.4765625 C-9.85122151 9.92073277 -11.97789896 10.59190606 -15 11 C-12.4650336 8.18911889 -9.58096754 6.36286905 -6.375 4.375 C-3.00896249 2.42174335 -3.00896249 2.42174335 0 0 Z " fill="#D11D1E" transform="translate(801,462)"/>
<path d="M0 0 C2.75992564 4.85177405 2.68988832 9.7408724 1.546875 15.140625 C1.08163776 16.7756016 0.54780999 18.39080815 0 20 C-0.33 20 -0.66 20 -1 20 C-1.11381955 13.23405981 -0.88021369 6.71162938 0 0 Z " fill="#D51B1D" transform="translate(751,396)"/>
<path d="M0 0 C0.33 0 0.66 0 1 0 C0.51679152 6.2054142 -0.33318124 11.99945246 -2 18 C-2.33 18 -2.66 18 -3 18 C-3.37634203 11.19796625 -2.77471079 6.24309927 0 0 Z " fill="#D01C1E" transform="translate(179,414)"/>
<path d="M0 0 C-1.95467752 1.33898399 -3.9133579 2.67129047 -5.875 4 C-6.96554687 4.7425 -8.05609375 5.485 -9.1796875 6.25 C-12 8 -12 8 -14 8 C-12.61220551 4.65927822 -11.18411804 3.09800579 -8.125 1.1875 C-7.44695312 0.74792969 -6.76890625 0.30835938 -6.0703125 -0.14453125 C-3.59237953 -1.16843185 -2.47510086 -0.90457722 0 0 Z " fill="#D21E1F" transform="translate(270,290)"/>
<path d="M0 0 C-2.11997834 1.19733988 -4.24513676 2.38298713 -6.375 3.5625 C-6.97828125 3.90474609 -7.5815625 4.24699219 -8.203125 4.59960938 C-9.76978241 5.46127095 -11.38290862 6.23718183 -13 7 C-13.66 6.67 -14.32 6.34 -15 6 C-12.87748883 3.69895986 -10.84451444 2.18105541 -8.0625 0.75 C-7.39347656 0.39421875 -6.72445313 0.0384375 -6.03515625 -0.328125 C-3.61730731 -1.12634 -2.36988243 -0.82707306 0 0 Z " fill="#D11D1F" transform="translate(287,281)"/>
<path d="M0 0 C3.49842535 3.03196864 4.91982058 5.49925243 6 10 C6.125 13.375 6.125 13.375 6 16 C4 15 4 15 2.9296875 12.12890625 C2.58164062 10.95199219 2.23359375 9.77507812 1.875 8.5625 C1.52179687 7.38816406 1.16859375 6.21382813 0.8046875 5.00390625 C0 2 0 2 0 0 Z " fill="#D01A1B" transform="translate(826,332)"/>
<path d="M0 0 C1.32 0.33 2.64 0.66 4 1 C0.37 4.3 -3.26 7.6 -7 11 C-7.66 10.67 -8.32 10.34 -9 10 C-6.03 6.7 -3.06 3.4 0 0 Z " fill="#D21C1F" transform="translate(242,306)"/>
<path d="M0 0 C1.91385532 2.87078299 2.96432952 5.33411656 4.125 8.5625 C4.47820312 9.53316406 4.83140625 10.50382813 5.1953125 11.50390625 C6 14 6 14 6 16 C3 15 3 15 2.05078125 13.14453125 C0.62131948 8.62924723 -0.3692425 4.80015245 0 0 Z " fill="#D01A1C" transform="translate(183,584)"/>
<path d="M0 0 C0.66 0 1.32 0 2 0 C0.40956621 5.08938811 -2.7446951 8.87456643 -6 13 C-6.66 12.67 -7.32 12.34 -8 12 C-6.2614738 8.98045449 -4.40978526 6.05840043 -2.4375 3.1875 C-2.02371094 2.58292969 -1.60992188 1.97835938 -1.18359375 1.35546875 C-0.79300781 0.90816406 -0.40242187 0.46085937 0 0 Z " fill="#D31D1E" transform="translate(744,424)"/>
<path d="M0 0 C-1 3 -1 3 -2.671875 4.16796875 C-9.57251908 7.55343511 -9.57251908 7.55343511 -14 7 C-10.33997803 3.94998169 -4.92148529 0 0 0 Z " fill="#D31D1E" transform="translate(456,702)"/>
<path d="M0 0 C5.79355528 1.32768975 10.0999919 3.66544904 15 7 C13.32421875 7.67578125 13.32421875 7.67578125 11 8 C8.45703125 6.85546875 8.45703125 6.85546875 5.8125 5.1875 C4.93207031 4.64480469 4.05164063 4.10210937 3.14453125 3.54296875 C1 2 1 2 0 0 Z " fill="#D11B1E" transform="translate(401,353)"/>
<path d="M0 0 C-1 2 -1 2 -2.671875 2.62109375 C-5.56208656 3.09148053 -8.32272535 3.0943182 -11.25 3.0625 C-12.32765625 3.05347656 -13.4053125 3.04445313 -14.515625 3.03515625 C-15.33546875 3.02355469 -16.1553125 3.01195312 -17 3 C-17 2.67 -17 2.34 -17 2 C-5.47835991 -0.29612756 -5.47835991 -0.29612756 0 0 Z " fill="#D01E1F" transform="translate(414,718)"/>
<path d="M0 0 C1.17369141 0.11794922 1.17369141 0.11794922 2.37109375 0.23828125 C4.5625 0.6875 4.5625 0.6875 7.5625 2.6875 C5.97955218 2.74187607 4.39605744 2.78046271 2.8125 2.8125 C1.93078125 2.83570313 1.0490625 2.85890625 0.140625 2.8828125 C-2.5510858 2.67889502 -4.13654974 2.05301721 -6.4375 0.6875 C-3.97648622 -0.54300689 -2.71323817 -0.29850075 0 0 Z " fill="#D31D20" transform="translate(706.4375,348.3125)"/>
<path d="M0 0 C0 0.99 0 1.98 0 3 C0.31421071 5.00309329 0.6451046 7.00371336 1 9 C-0.98 9 -2.96 9 -5 9 C-4.34 8.01 -3.68 7.02 -3 6 C-3 5.01 -3 4.02 -3 3 C-1.5 1.3125 -1.5 1.3125 0 0 Z " fill="#D23737" transform="translate(496,705)"/>
<path d="M0 0 C1.18414294 3.55242882 0.69535532 4.69830562 -0.4375 8.1875 C-0.72496094 9.08855469 -1.01242188 9.98960937 -1.30859375 10.91796875 C-1.53675781 11.60503906 -1.76492187 12.29210937 -2 13 C-2.33 13 -2.66 13 -3 13 C-3.31563182 7.73946963 -2.66590937 4.55426184 0 0 Z " fill="#D01A1B" transform="translate(183,400)"/>
<path d="M0 0 C0.66 0 1.32 0 2 0 C5.42857143 8.42857143 5.42857143 8.42857143 5 13 C1.42988974 9.267612 0.89086558 4.9050011 0 0 Z " fill="#D51A1D" transform="translate(536,321)"/>
<path d="M0 0 C3.33511388 2.9901021 5.21521119 5.89498574 7 10 C7 10.66 7 11.32 7 12 C6.34 12 5.68 12 5 12 C4.15885829 10.56705502 3.32734313 9.12845595 2.5 7.6875 C1.80390625 6.48673828 1.80390625 6.48673828 1.09375 5.26171875 C0 3 0 3 0 0 Z " fill="#D41E20" transform="translate(529,308)"/>
<path d="M0 0 C3.21043882 1.38188453 5.04936365 2.92421903 7.25 5.625 C8.03117187 6.57246094 8.03117187 6.57246094 8.828125 7.5390625 C9.40820312 8.26222656 9.40820312 8.26222656 10 9 C6.43179569 8.44149846 5.00428942 7.27801323 2.75 4.5 C1.96882813 3.55640625 1.96882813 3.55640625 1.171875 2.59375 C0 1 0 1 0 0 Z " fill="#D51D1F" transform="translate(494,271)"/>
<path d="M0 0 C1.58409994 0.11487748 3.16728963 0.24234508 4.75 0.375 C6.07257813 0.47941406 6.07257813 0.47941406 7.421875 0.5859375 C9.99066382 0.99850055 11.75841015 1.71160957 14 3 C4.58997722 3.3690205 4.58997722 3.3690205 0 1 C0 0.67 0 0.34 0 0 Z " fill="#CF1A1C" transform="translate(312,716)"/>
<path d="M0 0 C0.99 0.33 1.98 0.66 3 1 C-0.96 4.465 -0.96 4.465 -5 8 C-5.66 7.67 -6.32 7.34 -7 7 C-4.66666667 4.66666667 -2.33333333 2.33333333 0 0 Z " fill="#D41D1F" transform="translate(425,620)"/>
<path d="M0 0 C0.64453125 1.765625 0.64453125 1.765625 1 4 C0.07421875 5.921875 0.07421875 5.921875 -1.3125 7.75 C-1.98732422 8.67039062 -1.98732422 8.67039062 -2.67578125 9.609375 C-3.11277344 10.06828125 -3.54976563 10.5271875 -4 11 C-4.66 11 -5.32 11 -6 11 C-4.54955729 6.89041233 -2.48889248 3.56741255 0 0 Z " fill="#D1191C" transform="translate(299,385)"/>
<path d="M0 0 C6.91428571 0.94285714 6.91428571 0.94285714 10 3 C10.33 3.99 10.66 4.98 11 6 C6.95743617 4.77782954 3.50711041 3.37245704 0 1 C0 0.67 0 0.34 0 0 Z " fill="#D11A1D" transform="translate(772,280)"/>
<path d="M0 0 C7.625 0.875 7.625 0.875 11 2 C10.67 2.99 10.34 3.98 10 5 C5.05 3.02 5.05 3.02 0 1 C0 0.67 0 0.34 0 0 Z " fill="#D31C1D" transform="translate(759,275)"/>
<path d="M0 0 C0.33 0.99 0.66 1.98 1 3 C0.00390625 4.82421875 0.00390625 4.82421875 -1.4375 6.6875 C-1.91058594 7.31011719 -2.38367188 7.93273437 -2.87109375 8.57421875 C-3.24363281 9.04472656 -3.61617188 9.51523437 -4 10 C-4.99 9.67 -5.98 9.34 -7 9 C-4.69 6.03 -2.38 3.06 0 0 Z " fill="#D51C1F" transform="translate(503,660)"/>
<path d="M0 0 C0.66 0 1.32 0 2 0 C1.44894091 3.9492568 0.61064629 7.34920174 -1 11 C-1.33 11 -1.66 11 -2 11 C-1.85892253 9.54119891 -1.71197585 8.08296449 -1.5625 6.625 C-1.48128906 5.81289063 -1.40007812 5.00078125 -1.31640625 4.1640625 C-1 2 -1 2 0 0 Z " fill="#D01C1F" transform="translate(186,388)"/>
<path d="M0 0 C4.18178076 1.79712892 5.24709406 3.79302575 7 8 C7 8.66 7 9.32 7 10 C4 9 4 9 2.83203125 6.93359375 C2.49558594 6.10988281 2.15914062 5.28617187 1.8125 4.4375 C1.46832031 3.61121094 1.12414062 2.78492188 0.76953125 1.93359375 C0.51558594 1.29550781 0.26164063 0.65742188 0 0 Z " fill="#D01C1E" transform="translate(819,320)"/>
<path d="M0 0 C2.31 0.33 4.62 0.66 7 1 C6.67 2.65 6.34 4.3 6 6 C3.37812506 4.95125002 2.20628639 4.35068687 0.75 1.875 C0.5025 1.25625 0.255 0.6375 0 0 Z " fill="#D72D2C" transform="translate(489,267)"/>
<path d="M0 0 C0.33 0 0.66 0 1 0 C1.17835515 4.54805635 0.99785435 7.8794254 -1 12 C-1.33 12 -1.66 12 -2 12 C-1.85904936 10.3745692 -1.71207913 8.74965949 -1.5625 7.125 C-1.48128906 6.22007812 -1.40007813 5.31515625 -1.31640625 4.3828125 C-1 2 -1 2 0 0 Z " fill="#D41A1C" transform="translate(541,642)"/>
<path d="M0 0 C0.99 1.485 0.99 1.485 2 3 C2.66 2.67 3.32 2.34 4 2 C4.3367697 6.93928888 4.16130459 7.78492722 1 12 C0.67 8.04 0.34 4.08 0 0 Z " fill="#D43A3A" transform="translate(172,536)"/>
<path d="M0 0 C0.33 0 0.66 0 1 0 C0.50769231 7.38461538 0.50769231 7.38461538 -2.0625 10.5 C-2.701875 10.995 -3.34125 11.49 -4 12 C-3.52309796 10.37433394 -3.04340334 8.74948689 -2.5625 7.125 C-2.29566406 6.22007812 -2.02882813 5.31515625 -1.75390625 4.3828125 C-1 2 -1 2 0 0 Z " fill="#D0181A" transform="translate(831,419)"/>
<path d="M0 0 C2.0625 2.0625 2.0625 2.0625 4 5 C3.75 8.8125 3.75 8.8125 3 12 C0.97649676 8.96474514 0.67875982 7.80573798 0.375 4.3125 C0.30023438 3.50425781 0.22546875 2.69601562 0.1484375 1.86328125 C0.09945313 1.24839844 0.05046875 0.63351562 0 0 Z " fill="#CE181B" transform="translate(276,547)"/>
<path d="M0 0 C-2.39763185 2.39763185 -3.33273498 2.34280586 -6.625 2.625 C-7.44226563 2.69976562 -8.25953125 2.77453125 -9.1015625 2.8515625 C-9.72804688 2.90054687 -10.35453125 2.94953125 -11 3 C-11 2.34 -11 1.68 -11 1 C-7.32589215 -0.17571451 -3.83070817 -0.07366746 0 0 Z " fill="#D21C1C" transform="translate(326,268)"/>
<path d="M0 0 C3.12270126 2.51830747 3.94523098 3.7261549 4.75 7.75 C4.8325 8.8225 4.915 9.895 5 11 C2.03947516 7.63576723 1.07710178 4.30840713 0 0 Z " fill="#D01A1C" transform="translate(840,534)"/>
<path d="M0 0 C3 3 3 3 3.07421875 5.48046875 C2.94660156 6.37378906 2.81898438 7.26710938 2.6875 8.1875 C2.56761719 9.08855469 2.44773437 9.98960937 2.32421875 10.91796875 C2.21722656 11.60503906 2.11023438 12.29210937 2 13 C1.67 13 1.34 13 1 13 C0.67 8.71 0.34 4.42 0 0 Z " fill="#D31B1E" transform="translate(509,333)"/>
<path d="M0 0 C7.42857143 -0.14285714 7.42857143 -0.14285714 11 1 C11 1.66 11 2.32 11 3 C9.741875 2.87625 8.48375 2.7525 7.1875 2.625 C6.12595703 2.52058594 6.12595703 2.52058594 5.04296875 2.4140625 C3 2 3 2 0 0 Z " fill="#D3191B" transform="translate(747,272)"/>
<path d="M0 0 C1 4 1 4 -0.4375 6.75 C-1.2109375 7.86375 -1.2109375 7.86375 -2 9 C-2.99 8.67 -3.98 8.34 -5 8 C-3.35 5.36 -1.7 2.72 0 0 Z " fill="#D11E1F" transform="translate(826,432)"/>
<path d="M0 0 C2 1 2 1 3.25 4.375 C3.4975 5.57125 3.745 6.7675 4 8 C3.01 9.485 3.01 9.485 2 11 C0.80712589 7.12315913 0 4.08378077 0 0 Z " fill="#D32223" transform="translate(446,399)"/>
<path d="M0 0 C-1 3 -1 3 -3.9375 4.6875 C-7 6 -7 6 -9 6 C-9 5.34 -9 4.68 -9 4 C-2.25 0 -2.25 0 0 0 Z " fill="#D0181B" transform="translate(337,354)"/>
<path d="M0 0 C0.66 0.33 1.32 0.66 2 1 C0.35 3.64 -1.3 6.28 -3 9 C-3.33 7.68 -3.66 6.36 -4 5 C-2.0625 2.25 -2.0625 2.25 0 0 Z " fill="#D1181A" transform="translate(207,347)"/>
<path d="M0 0 C7.56634615 -0.37211538 7.56634615 -0.37211538 9.76171875 1.51171875 C10.17035156 2.00285156 10.57898438 2.49398438 11 3 C9.54077307 2.88590407 8.08259402 2.75834456 6.625 2.625 C5.40683594 2.52058594 5.40683594 2.52058594 4.1640625 2.4140625 C2 2 2 2 0 0 Z " fill="#D2191A" transform="translate(416,268)"/>
<path d="M0 0 C0 0.66 0 1.32 0 2 C-4.455 2.495 -4.455 2.495 -9 3 C-8 1 -8 1 -6.1875 0.375 C-4 0 -4 0 0 0 Z " fill="#CF1D1E" transform="translate(764,708)"/>
<path d="M0 0 C0.88492145 2.47778006 1.11637742 3.66056586 0.25 6.1875 C-1 8 -1 8 -4 9 C-2.94124926 5.59687262 -1.99097846 2.98646769 0 0 Z " fill="#CF1C1D" transform="translate(838,644)"/>
<path d="M0 0 C0.33 0 0.66 0 1 0 C1.08096803 1.45742463 1.13917774 2.91612807 1.1875 4.375 C1.22230469 5.18710937 1.25710938 5.99921875 1.29296875 6.8359375 C1.19628906 7.55007813 1.09960938 8.26421875 1 9 C0.01 9.66 -0.98 10.32 -2 11 C-1.34 7.37 -0.68 3.74 0 0 Z " fill="#D01B1B" transform="translate(834,406)"/>
<path d="M0 0 C1 3 1 3 -0.4375 6.1875 C-1.2109375 7.5796875 -1.2109375 7.5796875 -2 9 C-2.66 9 -3.32 9 -4 9 C-2.94124926 5.59687262 -1.99097846 2.98646769 0 0 Z " fill="#D11A1C" transform="translate(292,397)"/>
<path d="M0 0 C0.66 0 1.32 0 2 0 C1.01 2.97 0.02 5.94 -1 9 C-1.33 9 -1.66 9 -2 9 C-1.125 2.25 -1.125 2.25 0 0 Z " fill="#CF1E1F" transform="translate(190,378)"/>
<path d="M0 0 C3.68754757 0.49831724 5.60490662 1.10067643 8 4 C7.67 4.99 7.34 5.98 7 7 C5.83040013 6.02433888 4.66438823 5.044375 3.5 4.0625 C2.8503125 3.51722656 2.200625 2.97195313 1.53125 2.41015625 C1.0259375 1.94480469 0.520625 1.47945313 0 1 C0 0.67 0 0.34 0 0 Z " fill="#D01C1D" transform="translate(792,292)"/>
<path d="M0 0 C0.99 0.33 1.98 0.66 3 1 C1.25 3.0625 1.25 3.0625 -1 5 C-3.25 4.75 -3.25 4.75 -5 4 C-2.6875 1.9375 -2.6875 1.9375 0 0 Z " fill="#D02527" transform="translate(491,710)"/>
<path d="M0 0 C3.3 0.99 6.6 1.98 10 3 C10 3.33 10 3.66 10 4 C7.25 4.25 7.25 4.25 4 4 C1.625 2 1.625 2 0 0 Z " fill="#D1191A" transform="translate(286,707)"/>
<path d="M0 0 C2 3.75 2 3.75 2 6 C1.34 6 0.68 6 0 6 C0 4.02 0 2.04 0 0 Z " fill="#D34141" transform="translate(178,577)"/>
<path d="M0 0 C0.33 0 0.66 0 1 0 C1 1.65 1 3.3 1 5 C0.67 5 0.34 5 0 5 C0 3.35 0 1.7 0 0 Z " fill="#D54344" transform="translate(168,466)"/>
<path d="M0 0 C4 1 4 1 4 1 Z " fill="#D44242" transform="translate(375,725)"/>
<path d="M0 0 C4 1 4 1 4 1 Z " fill="#D74343" transform="translate(529,718)"/>
<path d="M0 0 C0.99 0.495 0.99 0.495 2 1 C1.67 1.66 1.34 2.32 1 3 C0.67 2.01 0.34 1.02 0 0 Z " fill="#D54142" transform="translate(193,620)"/>
<path d="M0 0 C1 4 1 4 1 4 Z " fill="#D54243" transform="translate(168,513)"/>
<path d="M0 0 C1 4 1 4 1 4 Z " fill="#D24746" transform="translate(839,377)"/>
<path d="M0 0 C3 1 3 1 3 1 Z " fill="#D34342" transform="translate(336,723)"/>
<path d="M0 0 C3 1 3 1 3 1 Z " fill="#D54342" transform="translate(714,718)"/>
<path d="M0 0 C3 1 3 1 3 1 Z " fill="#D84241" transform="translate(658,718)"/>
<path d="M0 0 C3 1 3 1 3 1 Z " fill="#D74241" transform="translate(618,718)"/>
<path d="M0 0 C3 1 3 1 3 1 Z " fill="#D74241" transform="translate(570,718)"/>
<path d="M0 0 C3 1 3 1 3 1 Z " fill="#D24344" transform="translate(265,701)"/>
<path d="" fill="#DA3C3F" transform="translate(0,0)"/>
<path d="" fill="#D54143" transform="translate(0,0)"/>
<path d="M0 0 C3 1 3 1 3 1 Z " fill="#D73E3E" transform="translate(699,448)"/>
<path d="" fill="#DE3C3C" transform="translate(0,0)"/>
<path d="" fill="#DB3D3C" transform="translate(0,0)"/>
<path d="M0 0 C2 1 2 1 2 1 Z " fill="#D44342" transform="translate(369,725)"/>
<path d="M0 0 C2 1 2 1 2 1 Z " fill="#D64342" transform="translate(420,719)"/>
<path d="M0 0 C2 1 2 1 2 1 Z " fill="#D74241" transform="translate(700,718)"/>
<path d="M0 0 C2 1 2 1 2 1 Z " fill="#D64040" transform="translate(729,717)"/>
<path d="M0 0 C2 1 2 1 2 1 Z " fill="#D44040" transform="translate(306,717)"/>
<path d="" fill="#D83F40" transform="translate(0,0)"/>
<path d="" fill="#DB3C3C" transform="translate(0,0)"/>
<path d="" fill="#D34344" transform="translate(0,0)"/>
<path d="M0 0 C2 1 2 1 2 1 Z " fill="#D63D3D" transform="translate(417,624)"/>
<path d="" fill="#DD3E3D" transform="translate(0,0)"/>
<path d="" fill="#DC3E3D" transform="translate(0,0)"/>
<path d="" fill="#D54341" transform="translate(0,0)"/>
<path d="" fill="#D44242" transform="translate(0,0)"/>
<path d="" fill="#DB3C3D" transform="translate(0,0)"/>
<path d="" fill="#D14545" transform="translate(0,0)"/>
<path d="" fill="#DD3D3D" transform="translate(0,0)"/>
<path d="" fill="#DD3D3E" transform="translate(0,0)"/>
<path d="M0 0 C2 1 2 1 2 1 Z " fill="#D44243" transform="translate(200,352)"/>
<path d="M0 0 C2 1 2 1 2 1 Z " fill="#DA3D3D" transform="translate(364,351)"/>
<path d="M0 0 C2 1 2 1 2 1 Z " fill="#D34545" transform="translate(224,320)"/>
<path d="M0 0 C2 1 2 1 2 1 Z " fill="#D24443" transform="translate(759,272)"/>
<path d="M0 0 C2 1 2 1 2 1 Z " fill="#D34543" transform="translate(320,266)"/>
<path d="" fill="#888276" transform="translate(0,0)"/>
<path d="" fill="#D54241" transform="translate(0,0)"/>
<path d="" fill="#D54241" transform="translate(0,0)"/>
<path d="" fill="#D54141" transform="translate(0,0)"/>
<path d="" fill="#D34342" transform="translate(0,0)"/>
<path d="" fill="#D84140" transform="translate(0,0)"/>
<path d="" fill="#D74141" transform="translate(0,0)"/>
<path d="" fill="#D64241" transform="translate(0,0)"/>
<path d="" fill="#D84343" transform="translate(0,0)"/>
<path d="" fill="#D74342" transform="translate(0,0)"/>
<path d="" fill="#D74243" transform="translate(0,0)"/>
<path d="" fill="#D84341" transform="translate(0,0)"/>
<path d="" fill="#D84342" transform="translate(0,0)"/>
<path d="" fill="#D84342" transform="translate(0,0)"/>
<path d="" fill="#D74342" transform="translate(0,0)"/>
<path d="" fill="#D74341" transform="translate(0,0)"/>
<path d="" fill="#D74442" transform="translate(0,0)"/>
<path d="" fill="#D84241" transform="translate(0,0)"/>
<path d="" fill="#D94342" transform="translate(0,0)"/>
<path d="" fill="#D94441" transform="translate(0,0)"/>
<path d="" fill="#D84341" transform="translate(0,0)"/>
<path d="" fill="#D84443" transform="translate(0,0)"/>
<path d="" fill="#D64343" transform="translate(0,0)"/>
<path d="" fill="#D94544" transform="translate(0,0)"/>
<path d="" fill="#D64643" transform="translate(0,0)"/>
<path d="" fill="#D64544" transform="translate(0,0)"/>
<path d="" fill="#D64645" transform="translate(0,0)"/>
<path d="" fill="#D04B47" transform="translate(0,0)"/>
<path d="" fill="#D14A47" transform="translate(0,0)"/>
<path d="" fill="#D54040" transform="translate(0,0)"/>
<path d="" fill="#D44442" transform="translate(0,0)"/>
<path d="" fill="#D34643" transform="translate(0,0)"/>
<path d="" fill="#D14745" transform="translate(0,0)"/>
<path d="" fill="#D54644" transform="translate(0,0)"/>
<path d="" fill="#D94343" transform="translate(0,0)"/>
<path d="" fill="#D14446" transform="translate(0,0)"/>
<path d="" fill="#D93839" transform="translate(0,0)"/>
<path d="" fill="#D34545" transform="translate(0,0)"/>
<path d="" fill="#D44444" transform="translate(0,0)"/>
<path d="" fill="#D84041" transform="translate(0,0)"/>
<path d="" fill="#D54544" transform="translate(0,0)"/>
<path d="" fill="#D34241" transform="translate(0,0)"/>
<path d="" fill="#D54443" transform="translate(0,0)"/>
<path d="" fill="#D34445" transform="translate(0,0)"/>
<path d="" fill="#DA403F" transform="translate(0,0)"/>
<path d="" fill="#D44746" transform="translate(0,0)"/>
<path d="" fill="#D34645" transform="translate(0,0)"/>
<path d="" fill="#D44544" transform="translate(0,0)"/>
<path d="" fill="#DA3E40" transform="translate(0,0)"/>
<path d="" fill="#DD3E3E" transform="translate(0,0)"/>
<path d="" fill="#D53E3E" transform="translate(0,0)"/>
<path d="" fill="#DC3C3C" transform="translate(0,0)"/>
<path d="" fill="#D53F3F" transform="translate(0,0)"/>
<path d="" fill="#D44243" transform="translate(0,0)"/>
<path d="" fill="#DC3D3B" transform="translate(0,0)"/>
<path d="" fill="#DD3C3C" transform="translate(0,0)"/>
<path d="" fill="#D73F3F" transform="translate(0,0)"/>
<path d="" fill="#D64243" transform="translate(0,0)"/>
<path d="" fill="#D24547" transform="translate(0,0)"/>
<path d="" fill="#D73C3D" transform="translate(0,0)"/>
<path d="" fill="#DE3D3F" transform="translate(0,0)"/>
<path d="" fill="#D34041" transform="translate(0,0)"/>
<path d="" fill="#DD3C3C" transform="translate(0,0)"/>
<path d="" fill="#D84141" transform="translate(0,0)"/>
<path d="" fill="#D54141" transform="translate(0,0)"/>
<path d="" fill="#D44245" transform="translate(0,0)"/>
<path d="" fill="#DF3B3E" transform="translate(0,0)"/>
<path d="" fill="#D84342" transform="translate(0,0)"/>
<path d="" fill="#D5403F" transform="translate(0,0)"/>
<path d="" fill="#D34949" transform="translate(0,0)"/>
<path d="" fill="#D44244" transform="translate(0,0)"/>
<path d="" fill="#D53E3F" transform="translate(0,0)"/>
<path d="" fill="#D54243" transform="translate(0,0)"/>
<path d="" fill="#DF3D3E" transform="translate(0,0)"/>
<path d="" fill="#DA3C40" transform="translate(0,0)"/>
<path d="" fill="#D53D3F" transform="translate(0,0)"/>
<path d="" fill="#D24A44" transform="translate(0,0)"/>
<path d="" fill="#DD3F3E" transform="translate(0,0)"/>
<path d="" fill="#D34644" transform="translate(0,0)"/>
<path d="" fill="#D54345" transform="translate(0,0)"/>
<path d="" fill="#DB3E40" transform="translate(0,0)"/>
<path d="" fill="#D34343" transform="translate(0,0)"/>
<path d="" fill="#D14241" transform="translate(0,0)"/>
<path d="" fill="#D84040" transform="translate(0,0)"/>
<path d="" fill="#D93C40" transform="translate(0,0)"/>
<path d="" fill="#D54242" transform="translate(0,0)"/>
<path d="" fill="#D54645" transform="translate(0,0)"/>
<path d="" fill="#D44344" transform="translate(0,0)"/>
<path d="" fill="#D94140" transform="translate(0,0)"/>
<path d="" fill="#D74441" transform="translate(0,0)"/>
<path d="" fill="#D54041" transform="translate(0,0)"/>
<path d="" fill="#D44544" transform="translate(0,0)"/>
<path d="" fill="#D74040" transform="translate(0,0)"/>
<path d="" fill="#DC3E3E" transform="translate(0,0)"/>
<path d="" fill="#D74647" transform="translate(0,0)"/>
<path d="" fill="#D43D3D" transform="translate(0,0)"/>
<path d="" fill="#D74544" transform="translate(0,0)"/>
<path d="" fill="#D84745" transform="translate(0,0)"/>
<path d="" fill="#D83E3E" transform="translate(0,0)"/>
<path d="" fill="#D64544" transform="translate(0,0)"/>
<path d="" fill="#D53E3D" transform="translate(0,0)"/>
<path d="" fill="#DD3C3C" transform="translate(0,0)"/>
<path d="" fill="#D83F3E" transform="translate(0,0)"/>
<path d="" fill="#D34142" transform="translate(0,0)"/>
<path d="" fill="#D73E3F" transform="translate(0,0)"/>
<path d="" fill="#D54342" transform="translate(0,0)"/>
<path d="" fill="#D83B3E" transform="translate(0,0)"/>
<path d="" fill="#D44343" transform="translate(0,0)"/>
<path d="" fill="#DE3E3E" transform="translate(0,0)"/>
<path d="" fill="#D74142" transform="translate(0,0)"/>
<path d="" fill="#D53C3F" transform="translate(0,0)"/>
<path d="" fill="#D53A3C" transform="translate(0,0)"/>
<path d="" fill="#DD3C3C" transform="translate(0,0)"/>
<path d="" fill="#DA3E3F" transform="translate(0,0)"/>
<path d="" fill="#DB3C3D" transform="translate(0,0)"/>
<path d="" fill="#D34243" transform="translate(0,0)"/>
<path d="" fill="#D73A3B" transform="translate(0,0)"/>
<path d="" fill="#DC3B3D" transform="translate(0,0)"/>
<path d="" fill="#DA3C3E" transform="translate(0,0)"/>
<path d="" fill="#D53E3C" transform="translate(0,0)"/>
<path d="" fill="#D24545" transform="translate(0,0)"/>
<path d="" fill="#D83F3F" transform="translate(0,0)"/>
<path d="" fill="#DA3D3E" transform="translate(0,0)"/>
<path d="" fill="#DA3C3E" transform="translate(0,0)"/>
<path d="" fill="#D83B3C" transform="translate(0,0)"/>
<path d="" fill="#DA3C3C" transform="translate(0,0)"/>
<path d="" fill="#D93D3D" transform="translate(0,0)"/>
<path d="" fill="#D73D3C" transform="translate(0,0)"/>
<path d="" fill="#D93B3D" transform="translate(0,0)"/>
<path d="" fill="#D93F40" transform="translate(0,0)"/>
<path d="" fill="#DE3D3F" transform="translate(0,0)"/>
<path d="" fill="#DB3F3F" transform="translate(0,0)"/>
<path d="" fill="#DA3D3D" transform="translate(0,0)"/>
<path d="" fill="#DA3C3F" transform="translate(0,0)"/>
<path d="" fill="#D73A3D" transform="translate(0,0)"/>
<path d="" fill="#D53C40" transform="translate(0,0)"/>
<path d="" fill="#DD3D3F" transform="translate(0,0)"/>
<path d="" fill="#D64241" transform="translate(0,0)"/>
<path d="" fill="#D9413E" transform="translate(0,0)"/>
<path d="" fill="#DB3E3D" transform="translate(0,0)"/>
<path d="" fill="#D73F40" transform="translate(0,0)"/>
<path d="" fill="#D93F3F" transform="translate(0,0)"/>
<path d="" fill="#DD403E" transform="translate(0,0)"/>
<path d="" fill="#DA3F3D" transform="translate(0,0)"/>
<path d="" fill="#DA3E3F" transform="translate(0,0)"/>
<path d="" fill="#DC3E3E" transform="translate(0,0)"/>
<path d="" fill="#D24442" transform="translate(0,0)"/>
<path d="" fill="#D34848" transform="translate(0,0)"/>
<path d="" fill="#DD3E40" transform="translate(0,0)"/>
<path d="" fill="#D24847" transform="translate(0,0)"/>
<path d="" fill="#D93D3D" transform="translate(0,0)"/>
<path d="" fill="#D54342" transform="translate(0,0)"/>
<path d="" fill="#DA3E3E" transform="translate(0,0)"/>
<path d="" fill="#DC3F3F" transform="translate(0,0)"/>
<path d="" fill="#D73B3D" transform="translate(0,0)"/>
<path d="" fill="#D34946" transform="translate(0,0)"/>
<path d="" fill="#D34140" transform="translate(0,0)"/>
<path d="" fill="#D24745" transform="translate(0,0)"/>
<path d="" fill="#D54241" transform="translate(0,0)"/>
<path d="" fill="#D64A48" transform="translate(0,0)"/>
<path d="" fill="#D34646" transform="translate(0,0)"/>
<path d="" fill="#D73F3F" transform="translate(0,0)"/>
<path d="" fill="#D44444" transform="translate(0,0)"/>
<path d="" fill="#D24644" transform="translate(0,0)"/>
<path d="" fill="#D13E40" transform="translate(0,0)"/>
<path d="" fill="#D34946" transform="translate(0,0)"/>
<path d="" fill="#D44542" transform="translate(0,0)"/>
<path d="" fill="#D54244" transform="translate(0,0)"/>
<path d="" fill="#D64241" transform="translate(0,0)"/>
<path d="" fill="#D44544" transform="translate(0,0)"/>
<path d="" fill="#D24344" transform="translate(0,0)"/>
<path d="" fill="#D24441" transform="translate(0,0)"/>
<path d="" fill="#D3403F" transform="translate(0,0)"/>
<path d="" fill="#D54142" transform="translate(0,0)"/>
<path d="" fill="#D24141" transform="translate(0,0)"/>
<path d="" fill="#D24445" transform="translate(0,0)"/>
</svg>
